<svg xmlns="http://www.w3.org/2000/svg" xmlns:xlink="http://www.w3.org/1999/xlink" width="230" zoomAndPan="magnify" viewBox="0 0 172.5 44.999999" height="60" preserveAspectRatio="xMidYMid meet" version="1.0"><defs><g/></defs><g fill="#ffffff" fill-opacity="1"><g transform="translate(1.046965, 17.996418)"><g><path d="M 0.890625 -12.34375 L 4.46875 -12.34375 C 6.1875 -12.34375 7.648438 -11.753906 8.859375 -10.578125 C 10.078125 -9.410156 10.6875 -7.941406 10.6875 -6.171875 C 10.6875 -4.398438 10.082031 -2.925781 8.875 -1.75 C 7.664062 -0.582031 6.195312 0 4.46875 0 L 0.890625 0 Z M 3.703125 -2.515625 L 4.140625 -2.515625 C 5.171875 -2.515625 6.007812 -2.859375 6.65625 -3.546875 C 7.3125 -4.242188 7.644531 -5.113281 7.65625 -6.15625 C 7.65625 -7.207031 7.328125 -8.082031 6.671875 -8.78125 C 6.023438 -9.476562 5.179688 -9.828125 4.140625 -9.828125 L 3.703125 -9.828125 Z M 3.703125 -2.515625 "/></g></g></g><g fill="#ffffff" fill-opacity="1"><g transform="translate(12.084955, 17.996418)"><g><path d="M 7.15625 -12.34375 L 12.140625 0 L 9.125 0 L 8.203125 -2.46875 L 3.515625 -2.46875 L 2.609375 0 L -0.421875 0 L 4.5625 -12.34375 Z M 7.25 -4.9375 L 5.875 -8.515625 L 5.84375 -8.515625 L 4.46875 -4.9375 Z M 7.25 -4.9375 "/></g></g></g><g fill="#ffffff" fill-opacity="1"><g transform="translate(23.810961, 17.996418)"><g><path d="M 3.703125 -7.65625 L 3.703125 0 L 0.890625 0 L 0.890625 -12.34375 L 3.703125 -12.34375 L 8.609375 -4.6875 L 8.640625 -4.6875 L 8.640625 -12.34375 L 11.453125 -12.34375 L 11.453125 0 L 8.640625 0 L 3.734375 -7.65625 Z M 3.703125 -7.65625 "/></g></g></g><g fill="#ffffff" fill-opacity="1"><g transform="translate(36.165143, 17.996418)"><g><path d="M 3.703125 -12.34375 L 3.703125 0 L 0.890625 0 L 0.890625 -12.34375 Z M 3.703125 -12.34375 "/></g></g></g><g fill="#ffffff" fill-opacity="1"><g transform="translate(40.771781, 17.996418)"><g><path d="M 7.953125 -12.34375 L 7.953125 -9.875 L 3.703125 -9.875 L 3.703125 -7.421875 L 7.78125 -7.421875 L 7.78125 -4.953125 L 3.703125 -4.953125 L 3.703125 -2.46875 L 7.953125 -2.46875 L 7.953125 0 L 0.890625 0 L 0.890625 -12.34375 Z M 7.953125 -12.34375 "/></g></g></g><g fill="#ffffff" fill-opacity="1"><g transform="translate(49.446629, 17.996418)"><g><path d="M 3.703125 -12.34375 L 3.703125 -2.46875 L 7.953125 -2.46875 L 7.953125 0 L 0.890625 0 L 0.890625 -12.34375 Z M 3.703125 -12.34375 "/></g></g></g><g fill="#ffffff" fill-opacity="1"><g transform="translate(57.897126, 17.996418)"><g/></g></g><g fill="#ffffff" fill-opacity="1"><g transform="translate(61.980284, 17.996418)"><g><path d="M 0.890625 -12.34375 L 5.3125 -12.34375 C 6.5 -12.34375 7.460938 -12.023438 8.203125 -11.390625 C 8.953125 -10.753906 9.328125 -9.847656 9.328125 -8.671875 C 9.328125 -7.765625 9.097656 -7.003906 8.640625 -6.390625 C 8.191406 -5.773438 7.578125 -5.34375 6.796875 -5.09375 L 11.046875 0 L 7.484375 0 L 3.703125 -4.875 L 3.703125 0 L 0.890625 0 Z M 3.703125 -6.859375 L 4.03125 -6.859375 C 4.289062 -6.859375 4.507812 -6.863281 4.6875 -6.875 C 4.875 -6.882812 5.082031 -6.921875 5.3125 -6.984375 C 5.539062 -7.046875 5.722656 -7.128906 5.859375 -7.234375 C 6.003906 -7.347656 6.125 -7.507812 6.21875 -7.71875 C 6.320312 -7.925781 6.375 -8.175781 6.375 -8.46875 C 6.375 -8.769531 6.320312 -9.023438 6.21875 -9.234375 C 6.125 -9.453125 6.003906 -9.613281 5.859375 -9.71875 C 5.722656 -9.832031 5.539062 -9.914062 5.3125 -9.96875 C 5.082031 -10.03125 4.875 -10.066406 4.6875 -10.078125 C 4.507812 -10.085938 4.289062 -10.09375 4.03125 -10.09375 L 3.703125 -10.09375 Z M 3.703125 -6.859375 "/></g></g></g><g fill="#ffffff" fill-opacity="1"><g transform="translate(72.689237, 17.996418)"><g><path d="M 3.703125 -12.34375 L 3.703125 0 L 0.890625 0 L 0.890625 -12.34375 Z M 3.703125 -12.34375 "/></g></g></g><g fill="#ffffff" fill-opacity="1"><g transform="translate(77.295876, 17.996418)"><g><path d="M 5.4375 -12.5625 C 6.101562 -12.5625 6.753906 -12.460938 7.390625 -12.265625 C 8.035156 -12.078125 8.515625 -11.882812 8.828125 -11.6875 L 9.265625 -11.390625 L 8.140625 -9.15625 C 8.046875 -9.207031 7.914062 -9.28125 7.75 -9.375 C 7.59375 -9.476562 7.296875 -9.609375 6.859375 -9.765625 C 6.421875 -9.921875 6.015625 -10 5.640625 -10 C 5.171875 -10 4.804688 -9.898438 4.546875 -9.703125 C 4.296875 -9.503906 4.171875 -9.234375 4.171875 -8.890625 C 4.171875 -8.722656 4.226562 -8.566406 4.34375 -8.421875 C 4.46875 -8.273438 4.671875 -8.117188 4.953125 -7.953125 C 5.242188 -7.796875 5.5 -7.664062 5.71875 -7.5625 C 5.945312 -7.46875 6.289062 -7.320312 6.75 -7.125 C 7.539062 -6.78125 8.21875 -6.316406 8.78125 -5.734375 C 9.34375 -5.148438 9.625 -4.488281 9.625 -3.75 C 9.625 -3.039062 9.5 -2.421875 9.25 -1.890625 C 9 -1.367188 8.648438 -0.957031 8.203125 -0.65625 C 7.753906 -0.351562 7.257812 -0.132812 6.71875 0 C 6.1875 0.144531 5.609375 0.21875 4.984375 0.21875 C 4.441406 0.21875 3.910156 0.160156 3.390625 0.046875 C 2.867188 -0.0546875 2.429688 -0.1875 2.078125 -0.34375 C 1.734375 -0.507812 1.421875 -0.671875 1.140625 -0.828125 C 0.867188 -0.992188 0.664062 -1.128906 0.53125 -1.234375 L 0.34375 -1.40625 L 1.75 -3.765625 C 1.863281 -3.671875 2.023438 -3.546875 2.234375 -3.390625 C 2.453125 -3.234375 2.828125 -3.023438 3.359375 -2.765625 C 3.890625 -2.503906 4.359375 -2.375 4.765625 -2.375 C 5.953125 -2.375 6.546875 -2.78125 6.546875 -3.59375 C 6.546875 -3.757812 6.503906 -3.914062 6.421875 -4.0625 C 6.335938 -4.207031 6.1875 -4.347656 5.96875 -4.484375 C 5.757812 -4.628906 5.570312 -4.742188 5.40625 -4.828125 C 5.238281 -4.921875 4.96875 -5.050781 4.59375 -5.21875 C 4.21875 -5.394531 3.941406 -5.53125 3.765625 -5.625 C 3.015625 -5.988281 2.4375 -6.445312 2.03125 -7 C 1.625 -7.550781 1.421875 -8.148438 1.421875 -8.796875 C 1.421875 -9.898438 1.828125 -10.800781 2.640625 -11.5 C 3.460938 -12.207031 4.394531 -12.5625 5.4375 -12.5625 Z M 5.4375 -12.5625 "/></g></g></g><g fill="#ffffff" fill-opacity="1"><g transform="translate(87.346733, 17.996418)"><g><path d="M 0.125 -9.875 L 0.125 -12.34375 L 8.796875 -12.34375 L 8.796875 -9.875 L 5.859375 -9.875 L 5.859375 0 L 3.046875 0 L 3.046875 -9.875 Z M 0.125 -9.875 "/></g></g></g><g fill="#ffffff" fill-opacity="1"><g transform="translate(96.260881, 17.996418)"><g><path d="M 0.34375 -6.171875 C 0.34375 -7.960938 0.953125 -9.472656 2.171875 -10.703125 C 3.390625 -11.941406 4.851562 -12.5625 6.5625 -12.5625 C 8.289062 -12.5625 9.753906 -11.945312 10.953125 -10.71875 C 12.160156 -9.488281 12.765625 -7.972656 12.765625 -6.171875 C 12.765625 -4.367188 12.171875 -2.851562 10.984375 -1.625 C 9.804688 -0.394531 8.332031 0.21875 6.5625 0.21875 C 4.757812 0.21875 3.269531 -0.390625 2.09375 -1.609375 C 0.925781 -2.828125 0.34375 -4.347656 0.34375 -6.171875 Z M 3.375 -6.171875 C 3.375 -5.523438 3.472656 -4.9375 3.671875 -4.40625 C 3.878906 -3.875 4.226562 -3.421875 4.71875 -3.046875 C 5.21875 -2.679688 5.832031 -2.5 6.5625 -2.5 C 7.613281 -2.5 8.40625 -2.859375 8.9375 -3.578125 C 9.46875 -4.296875 9.734375 -5.160156 9.734375 -6.171875 C 9.734375 -7.179688 9.460938 -8.046875 8.921875 -8.765625 C 8.378906 -9.492188 7.59375 -9.859375 6.5625 -9.859375 C 5.550781 -9.859375 4.765625 -9.492188 4.203125 -8.765625 C 3.648438 -8.046875 3.375 -7.179688 3.375 -6.171875 Z M 3.375 -6.171875 "/></g></g></g><g fill="#ffffff" fill-opacity="1"><g transform="translate(109.377844, 17.996418)"><g><path d="M 8.03125 -12.34375 L 8.03125 -9.875 L 3.703125 -9.875 L 3.703125 -7.421875 L 7.703125 -7.421875 L 7.703125 -4.953125 L 3.703125 -4.953125 L 3.703125 0 L 0.890625 0 L 0.890625 -12.34375 Z M 8.03125 -12.34375 "/></g></g></g><g fill="#ffffff" fill-opacity="1"><g transform="translate(117.85826, 17.996418)"><g><path d="M 8.03125 -12.34375 L 8.03125 -9.875 L 3.703125 -9.875 L 3.703125 -7.421875 L 7.703125 -7.421875 L 7.703125 -4.953125 L 3.703125 -4.953125 L 3.703125 0 L 0.890625 0 L 0.890625 -12.34375 Z M 8.03125 -12.34375 "/></g></g></g><g fill="#ffffff" fill-opacity="1"><g transform="translate(126.338676, 17.996418)"><g/></g></g><g fill="#ffffff" fill-opacity="1"><g transform="translate(130.421834, 17.996418)"><g><path d="M 0.890625 -12.34375 L 5.390625 -12.34375 C 6.648438 -12.34375 7.664062 -12.015625 8.4375 -11.359375 C 9.21875 -10.710938 9.609375 -9.769531 9.609375 -8.53125 C 9.609375 -7.300781 9.210938 -6.332031 8.421875 -5.625 C 7.640625 -4.925781 6.628906 -4.578125 5.390625 -4.578125 L 3.703125 -4.578125 L 3.703125 0 L 0.890625 0 Z M 3.703125 -6.8125 L 4.5 -6.8125 C 5.125 -6.8125 5.640625 -6.9375 6.046875 -7.1875 C 6.453125 -7.445312 6.65625 -7.867188 6.65625 -8.453125 C 6.65625 -9.035156 6.453125 -9.453125 6.046875 -9.703125 C 5.640625 -9.960938 5.125 -10.09375 4.5 -10.09375 L 3.703125 -10.09375 Z M 3.703125 -6.8125 "/></g></g></g><g fill="#ffffff" fill-opacity="1"><g transform="translate(140.382955, 17.996418)"><g><path d="M 7.15625 -12.34375 L 12.140625 0 L 9.125 0 L 8.203125 -2.46875 L 3.515625 -2.46875 L 2.609375 0 L -0.421875 0 L 4.5625 -12.34375 Z M 7.25 -4.9375 L 5.875 -8.515625 L 5.84375 -8.515625 L 4.46875 -4.9375 Z M 7.25 -4.9375 "/></g></g></g><g fill="#ffffff" fill-opacity="1"><g transform="translate(152.108961, 17.996418)"><g><path d="M 11.265625 -12.34375 L 5.140625 -2.46875 L 10.859375 -2.46875 L 10.859375 0 L 0.234375 0 L 6.34375 -9.875 L 1.109375 -9.875 L 1.109375 -12.34375 Z M 11.265625 -12.34375 "/></g></g></g><g fill="#ffffff" fill-opacity="1"><g transform="translate(1.046965, 36.173003)"><g><path d="M 7.859375 -2.03125 C 7.890625 -2.007812 7.90625 -1.976562 7.90625 -1.9375 C 7.90625 -1.894531 7.890625 -1.835938 7.859375 -1.765625 C 7.828125 -1.691406 7.769531 -1.597656 7.6875 -1.484375 C 7.613281 -1.367188 7.472656 -1.207031 7.265625 -1 C 7.066406 -0.800781 6.84375 -0.628906 6.59375 -0.484375 C 6.351562 -0.335938 6.035156 -0.207031 5.640625 -0.09375 C 5.253906 0.0195312 4.832031 0.078125 4.375 0.078125 C 3.28125 0.078125 2.367188 -0.300781 1.640625 -1.0625 C 0.910156 -1.832031 0.546875 -2.835938 0.546875 -4.078125 C 0.546875 -5.328125 0.914062 -6.316406 1.65625 -7.046875 C 2.394531 -7.785156 3.285156 -8.15625 4.328125 -8.15625 C 5.492188 -8.15625 6.335938 -7.753906 6.859375 -6.953125 L 6.84375 -7.953125 C 6.832031 -8.046875 6.878906 -8.09375 6.984375 -8.09375 L 7.609375 -8.09375 C 7.710938 -8.09375 7.765625 -8.046875 7.765625 -7.953125 L 7.765625 -5.5 C 7.765625 -5.394531 7.710938 -5.34375 7.609375 -5.34375 L 6.90625 -5.34375 C 6.8125 -5.34375 6.765625 -5.394531 6.765625 -5.5 L 6.765625 -5.59375 C 6.765625 -5.9375 6.53125 -6.296875 6.0625 -6.671875 C 5.59375 -7.046875 5.007812 -7.234375 4.3125 -7.234375 C 3.613281 -7.234375 2.984375 -6.957031 2.421875 -6.40625 C 1.867188 -5.851562 1.59375 -5.070312 1.59375 -4.0625 C 1.59375 -3.050781 1.875 -2.265625 2.4375 -1.703125 C 3 -1.148438 3.660156 -0.875 4.421875 -0.875 C 5.234375 -0.875 5.878906 -1.054688 6.359375 -1.421875 C 6.722656 -1.703125 6.992188 -1.988281 7.171875 -2.28125 C 7.222656 -2.394531 7.289062 -2.421875 7.375 -2.359375 Z M 7.859375 -2.03125 "/></g></g></g><g fill="#ffffff" fill-opacity="1"><g transform="translate(9.50885, 36.173003)"><g><path d="M 5.25 -0.703125 C 4.726562 -0.179688 4.054688 0.078125 3.234375 0.078125 C 2.410156 0.078125 1.734375 -0.179688 1.203125 -0.703125 C 0.679688 -1.222656 0.421875 -1.914062 0.421875 -2.78125 C 0.421875 -3.65625 0.6875 -4.347656 1.21875 -4.859375 C 1.757812 -5.367188 2.429688 -5.625 3.234375 -5.625 C 4.046875 -5.625 4.710938 -5.363281 5.234375 -4.84375 C 5.765625 -4.332031 6.03125 -3.644531 6.03125 -2.78125 C 6.03125 -1.925781 5.769531 -1.234375 5.25 -0.703125 Z M 1.375 -2.78125 C 1.375 -2.164062 1.550781 -1.664062 1.90625 -1.28125 C 2.269531 -0.894531 2.710938 -0.703125 3.234375 -0.703125 C 3.753906 -0.703125 4.195312 -0.894531 4.5625 -1.28125 C 4.925781 -1.664062 5.109375 -2.164062 5.109375 -2.78125 C 5.109375 -3.394531 4.925781 -3.890625 4.5625 -4.265625 C 4.195312 -4.640625 3.757812 -4.828125 3.25 -4.828125 C 2.738281 -4.828125 2.296875 -4.640625 1.921875 -4.265625 C 1.554688 -3.890625 1.375 -3.394531 1.375 -2.78125 Z M 1.375 -2.78125 "/></g></g></g><g fill="#ffffff" fill-opacity="1"><g transform="translate(15.979044, 36.173003)"><g><path d="M 6.421875 0 L 5.34375 0 C 5.019531 0 4.859375 -0.15625 4.859375 -0.46875 L 4.859375 -3.4375 C 4.859375 -3.875 4.753906 -4.210938 4.546875 -4.453125 C 4.335938 -4.691406 4.03125 -4.8125 3.625 -4.8125 C 3.050781 -4.8125 2.601562 -4.570312 2.28125 -4.09375 C 2.238281 -4.050781 2.1875 -3.972656 2.125 -3.859375 L 2.125 -0.75 L 2.71875 -0.75 C 2.820312 -0.75 2.875 -0.707031 2.875 -0.625 L 2.875 -0.140625 C 2.875 -0.046875 2.820312 0 2.71875 0 L 0.578125 0 C 0.472656 0 0.421875 -0.046875 0.421875 -0.140625 L 0.421875 -0.625 C 0.421875 -0.707031 0.472656 -0.75 0.578125 -0.75 L 1.1875 -0.75 L 1.1875 -4.78125 L 0.578125 -4.78125 C 0.472656 -4.78125 0.421875 -4.828125 0.421875 -4.921875 L 0.421875 -5.40625 C 0.421875 -5.5 0.472656 -5.546875 0.578125 -5.546875 L 1.890625 -5.546875 C 1.984375 -5.546875 2.03125 -5.5 2.03125 -5.40625 L 2.015625 -4.640625 L 2.046875 -4.640625 C 2.441406 -5.296875 3.046875 -5.625 3.859375 -5.625 C 4.460938 -5.625 4.929688 -5.445312 5.265625 -5.09375 C 5.609375 -4.738281 5.785156 -4.257812 5.796875 -3.65625 L 5.796875 -0.75 L 6.421875 -0.75 C 6.515625 -0.75 6.5625 -0.707031 6.5625 -0.625 L 6.5625 -0.140625 C 6.5625 -0.046875 6.515625 0 6.421875 0 Z M 6.421875 0 "/></g></g></g><g fill="#ffffff" fill-opacity="1"><g transform="translate(22.966854, 36.173003)"><g><path d="M 2.921875 0.078125 C 2.421875 0.078125 2.019531 -0.015625 1.71875 -0.203125 C 1.414062 -0.390625 1.226562 -0.566406 1.15625 -0.734375 L 1.140625 -0.734375 C 1.148438 -0.367188 1.15625 -0.171875 1.15625 -0.140625 C 1.15625 -0.046875 1.101562 0 1 0 L 0.625 0 C 0.519531 0 0.46875 -0.046875 0.46875 -0.140625 L 0.46875 -1.84375 C 0.46875 -1.9375 0.519531 -1.984375 0.625 -1.984375 L 1.0625 -1.984375 C 1.164062 -1.984375 1.21875 -1.9375 1.21875 -1.84375 L 1.21875 -1.609375 C 1.289062 -1.378906 1.445312 -1.171875 1.6875 -0.984375 C 1.976562 -0.765625 2.335938 -0.65625 2.765625 -0.65625 C 3.597656 -0.65625 4.015625 -0.945312 4.015625 -1.53125 C 4.015625 -1.738281 3.898438 -1.898438 3.671875 -2.015625 C 3.441406 -2.140625 3.160156 -2.242188 2.828125 -2.328125 C 2.492188 -2.410156 2.160156 -2.503906 1.828125 -2.609375 C 1.492188 -2.710938 1.207031 -2.882812 0.96875 -3.125 C 0.738281 -3.363281 0.625 -3.660156 0.625 -4.015625 C 0.625 -4.503906 0.800781 -4.894531 1.15625 -5.1875 C 1.507812 -5.476562 1.960938 -5.625 2.515625 -5.625 C 3.253906 -5.625 3.785156 -5.40625 4.109375 -4.96875 L 4.140625 -4.96875 C 4.117188 -5.238281 4.109375 -5.378906 4.109375 -5.390625 C 4.109375 -5.484375 4.160156 -5.53125 4.265625 -5.53125 L 4.625 -5.53125 C 4.71875 -5.53125 4.765625 -5.484375 4.765625 -5.390625 L 4.765625 -3.8125 C 4.765625 -3.71875 4.71875 -3.671875 4.625 -3.671875 L 4.171875 -3.671875 C 4.066406 -3.671875 4.015625 -3.71875 4.015625 -3.8125 L 4.015625 -3.984375 C 4.015625 -4.179688 3.894531 -4.378906 3.65625 -4.578125 C 3.425781 -4.773438 3.125 -4.875 2.75 -4.875 C 2.375 -4.875 2.078125 -4.796875 1.859375 -4.640625 C 1.648438 -4.484375 1.546875 -4.28125 1.546875 -4.03125 C 1.546875 -3.78125 1.664062 -3.582031 1.90625 -3.4375 C 2.144531 -3.300781 2.429688 -3.191406 2.765625 -3.109375 C 3.109375 -3.035156 3.445312 -2.945312 3.78125 -2.84375 C 4.125 -2.75 4.410156 -2.585938 4.640625 -2.359375 C 4.878906 -2.140625 5 -1.828125 5 -1.421875 C 5 -1.023438 4.828125 -0.675781 4.484375 -0.375 C 4.148438 -0.0703125 3.628906 0.078125 2.921875 0.078125 Z M 2.921875 0.078125 "/></g></g></g><g fill="#ffffff" fill-opacity="1"><g transform="translate(28.435571, 36.173003)"><g><path d="M 6.28125 0 L 5.296875 0 C 4.972656 0 4.8125 -0.15625 4.8125 -0.46875 L 4.8125 -0.890625 L 4.78125 -0.890625 C 4.46875 -0.242188 3.878906 0.078125 3.015625 0.078125 C 2.421875 0.078125 1.945312 -0.0976562 1.59375 -0.453125 C 1.238281 -0.804688 1.0625 -1.28125 1.0625 -1.875 L 1.0625 -4.78125 L 0.421875 -4.78125 C 0.328125 -4.78125 0.28125 -4.828125 0.28125 -4.921875 L 0.28125 -5.40625 C 0.28125 -5.5 0.328125 -5.546875 0.421875 -5.546875 L 1.5 -5.546875 C 1.820312 -5.546875 1.984375 -5.382812 1.984375 -5.0625 L 1.984375 -2.109375 C 1.984375 -1.671875 2.085938 -1.332031 2.296875 -1.09375 C 2.503906 -0.851562 2.8125 -0.734375 3.21875 -0.734375 C 3.769531 -0.734375 4.203125 -0.9375 4.515625 -1.34375 C 4.648438 -1.507812 4.71875 -1.625 4.71875 -1.6875 L 4.71875 -4.78125 L 4.109375 -4.78125 C 4.023438 -4.78125 3.984375 -4.828125 3.984375 -4.921875 L 3.984375 -5.40625 C 3.984375 -5.5 4.023438 -5.546875 4.109375 -5.546875 L 5.515625 -5.546875 C 5.597656 -5.546875 5.640625 -5.5 5.640625 -5.40625 L 5.640625 -0.75 L 6.28125 -0.75 C 6.375 -0.75 6.421875 -0.707031 6.421875 -0.625 L 6.421875 -0.140625 C 6.421875 -0.046875 6.375 0 6.28125 0 Z M 6.28125 0 "/></g></g></g><g fill="#ffffff" fill-opacity="1"><g transform="translate(35.277103, 36.173003)"><g><path d="M 2.71875 0 L 0.578125 0 C 0.472656 0 0.421875 -0.046875 0.421875 -0.140625 L 0.421875 -0.625 C 0.421875 -0.707031 0.472656 -0.75 0.578125 -0.75 L 1.1875 -0.75 L 1.1875 -7.328125 L 0.578125 -7.328125 C 0.472656 -7.328125 0.421875 -7.375 0.421875 -7.46875 L 0.421875 -7.953125 C 0.421875 -8.046875 0.472656 -8.09375 0.578125 -8.09375 L 1.828125 -8.09375 C 2.023438 -8.09375 2.125 -8 2.125 -7.8125 L 2.125 -0.75 L 2.71875 -0.75 C 2.820312 -0.75 2.875 -0.707031 2.875 -0.625 L 2.875 -0.140625 C 2.875 -0.046875 2.820312 0 2.71875 0 Z M 2.71875 0 "/></g></g></g><g fill="#ffffff" fill-opacity="1"><g transform="translate(38.574088, 36.173003)"><g><path d="M 4.1875 -0.578125 C 4.21875 -0.546875 4.234375 -0.507812 4.234375 -0.46875 C 4.234375 -0.4375 4.210938 -0.398438 4.171875 -0.359375 C 3.835938 -0.0664062 3.421875 0.078125 2.921875 0.078125 C 2.421875 0.078125 2.007812 -0.0820312 1.6875 -0.40625 C 1.375 -0.738281 1.21875 -1.21875 1.21875 -1.84375 L 1.21875 -4.78125 L 0.578125 -4.78125 C 0.472656 -4.78125 0.421875 -4.832031 0.421875 -4.9375 L 0.421875 -5.390625 C 0.421875 -5.492188 0.472656 -5.546875 0.578125 -5.546875 L 1.21875 -5.546875 L 1.21875 -6.6875 C 1.21875 -6.789062 1.269531 -6.84375 1.375 -6.84375 L 2 -6.84375 C 2.101562 -6.84375 2.15625 -6.789062 2.15625 -6.6875 L 2.15625 -5.546875 L 3.578125 -5.546875 C 3.679688 -5.546875 3.734375 -5.492188 3.734375 -5.390625 L 3.734375 -4.9375 C 3.734375 -4.832031 3.679688 -4.78125 3.578125 -4.78125 L 2.15625 -4.78125 L 2.15625 -1.859375 C 2.15625 -1.484375 2.238281 -1.195312 2.40625 -1 C 2.570312 -0.8125 2.796875 -0.71875 3.078125 -0.71875 C 3.359375 -0.71875 3.570312 -0.789062 3.71875 -0.9375 C 3.789062 -1 3.859375 -0.992188 3.921875 -0.921875 Z M 4.1875 -0.578125 "/></g></g></g><g fill="#ffffff" fill-opacity="1"><g transform="translate(43.086346, 36.173003)"><g><path d="M 2.71875 0 L 0.578125 0 C 0.472656 0 0.421875 -0.046875 0.421875 -0.140625 L 0.421875 -0.625 C 0.421875 -0.707031 0.472656 -0.75 0.578125 -0.75 L 1.1875 -0.75 L 1.1875 -4.78125 L 0.578125 -4.78125 C 0.472656 -4.78125 0.421875 -4.828125 0.421875 -4.921875 L 0.421875 -5.40625 C 0.421875 -5.5 0.472656 -5.546875 0.578125 -5.546875 L 2 -5.546875 C 2.082031 -5.546875 2.125 -5.5 2.125 -5.40625 L 2.125 -0.75 L 2.71875 -0.75 C 2.820312 -0.75 2.875 -0.707031 2.875 -0.625 L 2.875 -0.140625 C 2.875 -0.046875 2.820312 0 2.71875 0 Z M 2.09375 -7.203125 C 2.21875 -7.078125 2.28125 -6.925781 2.28125 -6.75 C 2.28125 -6.582031 2.21875 -6.4375 2.09375 -6.3125 C 1.96875 -6.195312 1.816406 -6.140625 1.640625 -6.140625 C 1.472656 -6.140625 1.328125 -6.195312 1.203125 -6.3125 C 1.078125 -6.4375 1.015625 -6.582031 1.015625 -6.75 C 1.015625 -6.925781 1.078125 -7.078125 1.203125 -7.203125 C 1.328125 -7.335938 1.472656 -7.40625 1.640625 -7.40625 C 1.816406 -7.40625 1.96875 -7.335938 2.09375 -7.203125 Z M 2.09375 -7.203125 "/></g></g></g><g fill="#ffffff" fill-opacity="1"><g transform="translate(46.383331, 36.173003)"><g><path d="M 6.421875 0 L 5.34375 0 C 5.019531 0 4.859375 -0.15625 4.859375 -0.46875 L 4.859375 -3.4375 C 4.859375 -3.875 4.753906 -4.210938 4.546875 -4.453125 C 4.335938 -4.691406 4.03125 -4.8125 3.625 -4.8125 C 3.050781 -4.8125 2.601562 -4.570312 2.28125 -4.09375 C 2.238281 -4.050781 2.1875 -3.972656 2.125 -3.859375 L 2.125 -0.75 L 2.71875 -0.75 C 2.820312 -0.75 2.875 -0.707031 2.875 -0.625 L 2.875 -0.140625 C 2.875 -0.046875 2.820312 0 2.71875 0 L 0.578125 0 C 0.472656 0 0.421875 -0.046875 0.421875 -0.140625 L 0.421875 -0.625 C 0.421875 -0.707031 0.472656 -0.75 0.578125 -0.75 L 1.1875 -0.75 L 1.1875 -4.78125 L 0.578125 -4.78125 C 0.472656 -4.78125 0.421875 -4.828125 0.421875 -4.921875 L 0.421875 -5.40625 C 0.421875 -5.5 0.472656 -5.546875 0.578125 -5.546875 L 1.890625 -5.546875 C 1.984375 -5.546875 2.03125 -5.5 2.03125 -5.40625 L 2.015625 -4.640625 L 2.046875 -4.640625 C 2.441406 -5.296875 3.046875 -5.625 3.859375 -5.625 C 4.460938 -5.625 4.929688 -5.445312 5.265625 -5.09375 C 5.609375 -4.738281 5.785156 -4.257812 5.796875 -3.65625 L 5.796875 -0.75 L 6.421875 -0.75 C 6.515625 -0.75 6.5625 -0.707031 6.5625 -0.625 L 6.5625 -0.140625 C 6.5625 -0.046875 6.515625 0 6.421875 0 Z M 6.421875 0 "/></g></g></g><g fill="#ffffff" fill-opacity="1"><g transform="translate(53.37114, 36.173003)"><g><path d="M 3.015625 2.640625 C 2.640625 2.640625 2.351562 2.613281 2.15625 2.5625 C 1.96875 2.507812 1.816406 2.460938 1.703125 2.421875 C 1.585938 2.378906 1.488281 2.335938 1.40625 2.296875 C 1.320312 2.253906 1.242188 2.207031 1.171875 2.15625 C 0.835938 1.945312 0.710938 1.789062 0.796875 1.6875 L 1.09375 1.265625 C 1.132812 1.203125 1.195312 1.203125 1.28125 1.265625 C 1.289062 1.265625 1.316406 1.28125 1.359375 1.3125 C 1.398438 1.34375 1.441406 1.375 1.484375 1.40625 C 1.523438 1.4375 1.578125 1.472656 1.640625 1.515625 C 1.710938 1.554688 1.796875 1.59375 1.890625 1.625 C 1.984375 1.65625 2.082031 1.6875 2.1875 1.71875 C 2.4375 1.789062 2.710938 1.828125 3.015625 1.828125 C 3.546875 1.828125 3.972656 1.695312 4.296875 1.4375 C 4.628906 1.175781 4.796875 0.769531 4.796875 0.21875 L 4.796875 -1.0625 C 4.660156 -0.75 4.4375 -0.476562 4.125 -0.25 C 3.8125 -0.03125 3.425781 0.078125 2.96875 0.078125 C 2.195312 0.078125 1.578125 -0.1875 1.109375 -0.71875 C 0.648438 -1.25 0.421875 -1.9375 0.421875 -2.78125 C 0.421875 -3.632812 0.65625 -4.320312 1.125 -4.84375 C 1.601562 -5.363281 2.21875 -5.625 2.96875 -5.625 C 3.425781 -5.625 3.816406 -5.515625 4.140625 -5.296875 C 4.460938 -5.085938 4.691406 -4.828125 4.828125 -4.515625 L 4.859375 -4.515625 L 4.84375 -5.40625 C 4.84375 -5.5 4.890625 -5.546875 4.984375 -5.546875 L 6.3125 -5.546875 C 6.394531 -5.546875 6.4375 -5.5 6.4375 -5.40625 L 6.4375 -4.921875 C 6.4375 -4.828125 6.394531 -4.78125 6.3125 -4.78125 L 5.703125 -4.78125 L 5.703125 0.21875 C 5.703125 1.019531 5.453125 1.625 4.953125 2.03125 C 4.460938 2.4375 3.816406 2.640625 3.015625 2.640625 Z M 1.359375 -2.765625 C 1.359375 -2.148438 1.519531 -1.648438 1.84375 -1.265625 C 2.175781 -0.890625 2.585938 -0.703125 3.078125 -0.703125 C 3.578125 -0.703125 3.988281 -0.890625 4.3125 -1.265625 C 4.644531 -1.648438 4.8125 -2.15625 4.8125 -2.78125 C 4.8125 -3.414062 4.644531 -3.914062 4.3125 -4.28125 C 3.988281 -4.644531 3.578125 -4.828125 3.078125 -4.828125 C 2.585938 -4.828125 2.175781 -4.640625 1.84375 -4.265625 C 1.519531 -3.890625 1.359375 -3.390625 1.359375 -2.765625 Z M 1.359375 -2.765625 "/></g></g></g></svg>