<?xml version="1.0" encoding="UTF-8" standalone="no"?>
<!DOCTYPE svg PUBLIC "-//W3C//DTD SVG 1.1//EN" "http://www.w3.org/Graphics/SVG/1.1/DTD/svg11.dtd">
<svg xmlns="http://www.w3.org/2000/svg" version="1.1" viewBox="0.00 0.00 24.00 24.00">
<g stroke-width="2.00" fill="none" stroke-linecap="butt">
<path stroke="#baabd0" vector-effect="non-scaling-stroke" d="
  M 22.92 6.25
  Q 17.82 6.69 12.56 6.57
  Q 11.92 6.55 11.66 6.85
  Q 11.31 7.26 11.48 7.96"
/>
<path stroke="#bd4d70" vector-effect="non-scaling-stroke" d="
  M 11.48 7.96
  Q 11.67 7.58 11.04 8.11"
/>
<path stroke="#baabd0" vector-effect="non-scaling-stroke" d="
  M 11.04 8.11
  Q 10.53 7.98 10.26 8.33
  A 0.54 0.46 -30.7 0 0 10.18 8.56
  Q 10.12 9.18 10.73 9.13"
/>
<path stroke="#bd4d70" vector-effect="non-scaling-stroke" d="
  M 10.73 9.13
  Q 11.41 9.93 11.57 9.61"
/>
<path stroke="#baabd0" vector-effect="non-scaling-stroke" d="
  M 11.57 9.61
  Q 11.48 9.99 11.49 10.27
  Q 11.49 10.82 12.04 10.83
  L 21.66 10.95"
/>
<path stroke="#bd4d70" vector-effect="non-scaling-stroke" d="
  M 21.66 10.95
  Q 22.69 11.50 22.92 12.30"
/>
<path stroke="#baabd0" vector-effect="non-scaling-stroke" d="
  M 22.91 12.49
  L 1.05 12.68"
/>
<path stroke="#f39d9d" vector-effect="non-scaling-stroke" d="
  M 22.92 11.04
  L 21.66 10.95"
/>
<path stroke="#f39d9d" vector-effect="non-scaling-stroke" d="
  M 22.92 9.41
  L 11.57 9.61"
/>
<path stroke="#f39d9d" vector-effect="non-scaling-stroke" d="
  M 10.73 9.13
  Q 11.05 8.72 11.04 8.11"
/>
<path stroke="#f39d9d" vector-effect="non-scaling-stroke" d="
  M 22.89 13.94
  L 1.07 14.06"
/>
<path stroke="#f39d9d" vector-effect="non-scaling-stroke" d="
  M 22.91 8.03
  L 11.48 7.96"
/>
<path stroke="#f39d9d" vector-effect="non-scaling-stroke" d="
  M 22.91 15.42
  L 1.08 15.48"
/>
<path stroke="#f39d9d" vector-effect="non-scaling-stroke" d="
  M 22.93 16.90
  L 1.14 16.96"
/>
<path stroke="#baabd0" vector-effect="non-scaling-stroke" d="
  M 4.03 8.32
  Q 3.93 8.59 4.37 9.13
  A 0.30 0.30 0.0 0 0 4.89 9.02
  Q 5.04 8.52 4.96 8.33
  Q 4.47 7.09 4.03 8.32"
/>
<path stroke="#baabd0" vector-effect="non-scaling-stroke" d="
  M 6.23 8.05
  Q 5.95 8.82 6.41 9.15
  Q 6.77 9.41 6.87 8.98
  Q 7.01 8.31 6.71 7.97
  Q 6.40 7.61 6.23 8.05"
/>
<path stroke="#baabd0" vector-effect="non-scaling-stroke" d="
  M 8.6540 9.1799
  A 0.54 0.38 78.9 0 0 8.9229 8.5768
  A 0.54 0.38 78.9 0 0 8.4460 8.1201
  A 0.54 0.38 78.9 0 0 8.1771 8.7232
  A 0.54 0.38 78.9 0 0 8.6540 9.1799"
/>
<path stroke="#9980c2" vector-effect="non-scaling-stroke" d="
  M 5.34 10.58
  L 4.72 10.27
  Q 4.41 10.11 4.23 10.51
  Q 4.14 10.72 4.22 10.89
  Q 4.38 11.26 4.78 11.26
  L 9.24 11.26
  Q 10.12 11.26 9.56 10.58
  Q 9.00 9.90 8.10 10.68
  A 0.62 0.62 0.0 0 1 7.28 10.68
  L 6.84 10.30
  Q 6.66 10.15 6.45 10.30
  L 6.13 10.52
  Q 5.74 10.79 5.34 10.58"
/>
</g>
<g fill="#f63f3d">
<path d="
  M 11.48 7.96
  L 22.91 8.03
  L 22.92 9.41
  L 11.57 9.61
  Q 11.41 9.93 10.73 9.13
  Q 11.05 8.72 11.04 8.11
  Q 11.67 7.58 11.48 7.96
  Z"
/>
<path d="
  M 22.92 11.04
  L 22.92 12.30
  Q 22.69 11.50 21.66 10.95
  L 22.92 11.04
  Z"
/>
<path d="
  M 22.89 13.94
  L 22.91 15.42
  L 1.08 15.48
  L 1.07 14.06
  L 22.89 13.94
  Z"
/>
<path d="
  M 22.93 16.90
  Q 23.07 17.60 22.98 18.23
  Q 22.91 18.75 22.38 18.75
  L 1.67 18.75
  Q 1.10 18.75 1.12 18.18
  L 1.14 16.96
  L 22.93 16.90
  Z"
/>
</g>
<g fill="#f0fbfd">
<path d="
  M 22.92 6.25
  L 22.91 8.03
  L 11.48 7.96
  Q 11.31 7.26 11.66 6.85
  Q 11.92 6.55 12.56 6.57
  Q 17.82 6.69 22.92 6.25
  Z"
/>
<path d="
  M 4.03 8.32
  Q 4.47 7.09 4.96 8.33
  Q 5.04 8.52 4.89 9.02
  A 0.30 0.30 0.0 0 1 4.37 9.13
  Q 3.93 8.59 4.03 8.32
  Z"
/>
<path d="
  M 6.23 8.05
  Q 6.40 7.61 6.71 7.97
  Q 7.01 8.31 6.87 8.98
  Q 6.77 9.41 6.41 9.15
  Q 5.95 8.82 6.23 8.05
  Z"
/>
<ellipse cx="0.00" cy="0.00" transform="translate(8.55,8.65) rotate(78.9)" rx="0.54" ry="0.38"/>
<path d="
  M 11.04 8.11
  Q 11.05 8.72 10.73 9.13
  Q 10.12 9.18 10.18 8.56
  A 0.54 0.46 -30.7 0 1 10.26 8.33
  Q 10.53 7.98 11.04 8.11
  Z"
/>
<path d="
  M 22.92 9.41
  L 22.92 11.04
  L 21.66 10.95
  L 12.04 10.83
  Q 11.49 10.82 11.49 10.27
  Q 11.48 9.99 11.57 9.61
  L 22.92 9.41
  Z"
/>
<path d="
  M 22.91 12.49
  Q 23.04 13.26 22.89 13.94
  L 1.07 14.06
  L 1.05 12.68
  L 22.91 12.49
  Z"
/>
<path d="
  M 22.91 15.42
  Q 23.05 16.13 22.93 16.90
  L 1.14 16.96
  Q 0.97 16.29 1.08 15.48
  L 22.91 15.42
  Z"
/>
</g>
<path fill="#845aa3" d="
  M 22.92 6.25
  Q 17.82 6.69 12.56 6.57
  Q 11.92 6.55 11.66 6.85
  Q 11.31 7.26 11.48 7.96
  Q 11.67 7.58 11.04 8.11
  Q 10.53 7.98 10.26 8.33
  A 0.54 0.46 -30.7 0 0 10.18 8.56
  Q 10.12 9.18 10.73 9.13
  Q 11.41 9.93 11.57 9.61
  Q 11.48 9.99 11.49 10.27
  Q 11.49 10.82 12.04 10.83
  L 21.66 10.95
  Q 22.69 11.50 22.92 12.30
  Q 22.92 12.39 22.91 12.49
  L 1.05 12.68
  L 1.05 5.49
  Q 1.05 5.03 1.51 5.03
  L 22.51 5.03
  Q 23.02 5.03 22.98 5.54
  L 22.92 6.25
  Z
  M 4.03 8.32
  Q 3.93 8.59 4.37 9.13
  A 0.30 0.30 0.0 0 0 4.89 9.02
  Q 5.04 8.52 4.96 8.33
  Q 4.47 7.09 4.03 8.32
  Z
  M 6.23 8.05
  Q 5.95 8.82 6.41 9.15
  Q 6.77 9.41 6.87 8.98
  Q 7.01 8.31 6.71 7.97
  Q 6.40 7.61 6.23 8.05
  Z
  M 8.6540 9.1799
  A 0.54 0.38 78.9 0 0 8.9229 8.5768
  A 0.54 0.38 78.9 0 0 8.4460 8.1201
  A 0.54 0.38 78.9 0 0 8.1771 8.7232
  A 0.54 0.38 78.9 0 0 8.6540 9.1799
  Z
  M 5.34 10.58
  L 4.72 10.27
  Q 4.41 10.11 4.23 10.51
  Q 4.14 10.72 4.22 10.89
  Q 4.38 11.26 4.78 11.26
  L 9.24 11.26
  Q 10.12 11.26 9.56 10.58
  Q 9.00 9.90 8.10 10.68
  A 0.62 0.62 0.0 0 1 7.28 10.68
  L 6.84 10.30
  Q 6.66 10.15 6.45 10.30
  L 6.13 10.52
  Q 5.74 10.79 5.34 10.58
  Z"
/>
<path fill="#ada6e1" d="
  M 6.13 10.52
  L 6.45 10.30
  Q 6.66 10.15 6.84 10.30
  L 7.28 10.68
  A 0.62 0.62 0.0 0 0 8.10 10.68
  Q 9.00 9.90 9.56 10.58
  Q 10.12 11.26 9.24 11.26
  L 4.78 11.26
  Q 4.38 11.26 4.22 10.89
  Q 4.14 10.72 4.23 10.51
  Q 4.41 10.11 4.72 10.27
  L 5.34 10.58
  Q 5.74 10.79 6.13 10.52
  Z"
/>
</svg>
