<?xml version="1.0" encoding="UTF-8" standalone="no"?>
<!DOCTYPE svg PUBLIC "-//W3C//DTD SVG 1.1//EN" "http://www.w3.org/Graphics/SVG/1.1/DTD/svg11.dtd">
<svg xmlns="http://www.w3.org/2000/svg" version="1.1" viewBox="0.00 0.00 24.00 24.00">
<g stroke-width="2.00" fill="none" stroke-linecap="butt">
<path stroke="#f18612" vector-effect="non-scaling-stroke" d="
  M 23.67 7.95
  L 0.33 7.97"
/>
<path stroke="#f18612" vector-effect="non-scaling-stroke" d="
  M 23.66 15.99
  L 0.34 16.00"
/>
</g>
<path fill="#ffed00" d="
  M 23.67 7.95
  Q 23.81 8.46 24.00 8.50
  L 24.00 15.45
  Q 23.80 15.50 23.66 15.99
  L 0.34 16.00
  Q 0.16 15.44 0.00 15.48
  L 0.00 8.55
  Q 0.22 8.37 0.33 7.97
  L 23.67 7.95
  Z"
/>
<g fill="#e31e24">
<path d="
  M 23.67 7.95
  L 0.33 7.97
  L 0.36 4.55
  Q 0.37 4.00 0.92 4.00
  L 23.08 4.00
  Q 23.62 4.00 23.63 4.55
  L 23.67 7.95
  Z"
/>
<path d="
  M 23.66 15.99
  L 23.64 19.37
  Q 23.64 19.95 23.06 19.95
  L 0.95 19.95
  Q 0.38 19.95 0.37 19.38
  L 0.34 16.00
  L 23.66 15.99
  Z"
/>
</g>
</svg>
